<svg xmlns="http://www.w3.org/2000/svg" xmlns:xlink="http://www.w3.org/1999/xlink" id="Capa_1" x="0px" y="0px" viewBox="0 0 512 512" style="enable-background:new 0 0 512 512;" xml:space="preserve">
<g>
	<path style="fill:#787780;" d="M364.701,479.599C332.601,500.9,294.401,512,256,512s-76.601-11.1-108.701-32.401   c-6.899-4.799-8.699-14.099-4.199-21c4.499-6.899,13.799-8.699,20.7-4.2c27,18.001,60.1,27,92.2,27s65.2-9,92.199-27.001   c6.601-4.499,16.201-2.699,20.7,4.2C373.4,465.5,371.6,474.8,364.701,479.599z"></path>
	<path style="fill:#787780;" d="M77.212,303.846c-0.776,0-1.553-0.059-2.358-0.19c-8.174-1.289-13.77-8.965-12.466-17.153   c10.532-66.826,56.104-126.321,118.916-152.044c7.646-3.105,16.421,0.542,19.57,8.203c3.135,7.661-0.542,16.421-8.203,19.57   C139.497,184,100.928,234.647,92.022,291.19C90.85,298.572,84.463,303.846,77.212,303.846z"></path>
</g>
<g>
	<path style="fill:#57555C;" d="M434.788,303.846c-7.266,0-13.638-5.273-14.81-12.656c-8.906-56.543-47.476-107.19-100.649-128.958   c-7.661-3.149-11.338-11.909-8.203-19.57c3.149-7.661,11.968-11.294,19.57-8.203c62.813,25.723,108.384,85.218,118.916,152.044   c1.304,8.188-4.292,15.864-12.466,17.153C436.341,303.787,435.564,303.846,434.788,303.846z"></path>
	<path style="fill:#57555C;" d="M364.701,479.599C332.601,500.9,294.401,512,256,512v-30.601c32.1,0,65.2-9,92.199-27.001   c6.601-4.499,16.201-2.699,20.7,4.2C373.4,465.5,371.6,474.8,364.701,479.599z"></path>
</g>
<path style="fill:#1689FC;" d="M256,90c-49.501,0-91,40.499-91,90v15c0,8.401,6.599,15,15,15h152c8.401,0,15-6.599,15-15v-15  C347,130.499,305.501,90,256,90z"></path>
<path style="fill:#415BE8;" d="M347,180v15c0,8.401-6.599,15-15,15h-76V90C305.501,90,347,130.499,347,180z"></path>
<path style="fill:#17ACE8;" d="M256,0c-32.999,0-61,27.001-61,60s28.001,60,61,60s61-27.001,61-60S288.999,0,256,0z"></path>
<g>
	<path style="fill:#1689FC;" d="M317,60c0,32.999-28.001,60-61,60V0C288.999,0,317,27.001,317,60z"></path>
	<path style="fill:#1689FC;" d="M90,362c-49.501,0-90,40.499-90,90v15c0,8.401,6.599,15,15,15h150c8.401,0,15-6.599,15-15v-15   C180,402.499,139.501,362,90,362z"></path>
</g>
<path style="fill:#415BE8;" d="M180,452v15c0,8.401-6.599,15-15,15H90V362C139.501,362,180,402.499,180,452z"></path>
<path style="fill:#17ACE8;" d="M90,272c-32.999,0-60,27.001-60,60s27.001,60,60,60s60-27.001,60-60S122.999,272,90,272z"></path>
<g>
	<path style="fill:#1689FC;" d="M150,332c0,32.999-27.001,60-60,60V272C122.999,272,150,299.001,150,332z"></path>
	<path style="fill:#1689FC;" d="M422,362c-49.501,0-90,40.499-90,90v15c0,8.401,6.599,15,15,15h150c8.401,0,15-6.599,15-15v-15   C512,402.499,471.501,362,422,362z"></path>
</g>
<path style="fill:#415BE8;" d="M512,452v15c0,8.401-6.599,15-15,15h-75V362C471.501,362,512,402.499,512,452z"></path>
<path style="fill:#17ACE8;" d="M422,272c-32.999,0-60,27.001-60,60s27.001,60,60,60s60-27.001,60-60S454.999,272,422,272z"></path>
<path style="fill:#1689FC;" d="M482,332c0,32.999-27.001,60-60,60V272C454.999,272,482,299.001,482,332z"></path>
<g>
</g>
<g>
</g>
<g>
</g>
<g>
</g>
<g>
</g>
<g>
</g>
<g>
</g>
<g>
</g>
<g>
</g>
<g>
</g>
<g>
</g>
<g>
</g>
<g>
</g>
<g>
</g>
<g>
</g>
</svg>